#N canvas 827 239 420 420 12;
#X obj -523 -2 pic 0 tree.png empty empty 0 0;
#X obj -1 -105 loadbang;
#X obj 1046 185 loadbang;
#X obj 1047 274 s pd, f 8;
#X msg 1047 221 pluginmode;
#X obj 671 114 adc~;
#X obj 704 332 dac~;
#X obj 17 315 knob 63 0 1 0 0.5 empty empty #eee7dc #e4955b #ffa05a 1 0 0 0 1 270 0 0 1;
#X obj 116 316 knob 63 0 1 0 0.5 empty empty #eee7dc #ffa000 #ffa000 1 0 0 0 1 270 0 0 0;
#X obj 225 317 knob 62 0 1 0 0.45 empty empty #eee7dc #ffa000 #ffa000 1 0 0 0 1 270 0 0 0;
#X obj 535 321 knob 63 0.1 1000 0 400 empty empty #d2cdc4 #ffa000 #ffa000 1 0 0 0 1 270 0 0 10;
#X obj 521 18 loadbang;
#X obj 484 205 loadbang;
#X obj 11 293 cnv 15 8 9 empty empty decay 16 6 0 14 #d2cdc4 #d27b00 0;
#X obj 108 293 cnv 15 8 9 empty empty size 16 6 0 14 #d8d8d8 #d27b00 0;
#X obj 207 299 cnv 15 70 10 empty empty dry_wet 16 6 0 14 #d2cdc4 #d27b00 0;
#X obj 552 291 cnv 15 82 9 empty empty L_release 16 6 0 14 #d2cdc4 #d27b00 0;
#X obj 107 390 cnv 15 8 9 empty \$0-size 0.82 16 6 0 14 #d2cdc4 #d27b00 0;
#X obj 217 391 cnv 15 8 8 empty \$0-dw 0.47 16 6 0 14 #d2cdc4 #d27b00 0;
#X obj 537 399 cnv 15 82 9 empty \$0-Lrelease 400.00ms 16 6 0 14 #d2cdc4 #d27b00 0;
#X obj 12 389 cnv 15 8 9 empty \$0-decay 0.83 16 6 0 14 #d2cdc4 #d27b00 0;
#N canvas 0 22 450 300 (subpatch) 0;
#X obj -306 410 inlet~;
#X obj -131 412 inlet~;
#X obj 82 526 delread4~ \$0-del_0;
#X obj 268 528 delread4~ \$0-del_1, f 21;
#X obj 85 762 *~, f 9;
#X obj 268 763 *~, f 9;
#X obj 435 766 *~, f 9;
#X obj 595 765 *~, f 9;
#X obj 447 530 delread4~ \$0-del_2;
#X obj 592 527 delread4~ \$0-del_3, f 21;
#X obj 82 662 +~;
#X obj 268 663 +~;
#X obj 437 657 -~;
#X obj 586 656 -~;
#X obj 83 714 +~;
#X obj 269 714 -~;
#X obj 435 709 +~;
#X obj 592 723 -~;
#X obj -321 1006 outlet~;
#X obj -144 1005 outlet~;
#X obj 758 524 delread4~ \$0-del_4;
#X obj 944 526 delread4~ \$0-del_5, f 21;
#X obj 1123 528 delread4~ \$0-del_6;
#X obj 1268 525 delread4~ \$0-del_7, f 21;
#X obj 737 761 *~, f 9;
#X obj 920 762 *~, f 9;
#X obj 1087 765 *~, f 9;
#X obj 1247 764 *~, f 9;
#X obj 734 661 +~;
#X obj 920 662 +~;
#X obj 1089 656 -~;
#X obj 1238 655 -~;
#X obj 735 713 +~;
#X obj 921 713 -~;
#X obj 1087 708 +~;
#X obj 1244 722 -~;
#X obj 90 594 +~;
#X obj 255 594 +~;
#X obj 440 594 +~;
#X obj 591 592 +~;
#X obj 733 590 -~;
#X obj 911 598 -~;
#X obj 1086 595 -~;
#X obj 1246 591 -~;
#X obj 103 121 *~ 0.26;
#X obj -149 822 svf~ 5 0.5;
#X obj 16 812 svf~ 5 0.5;
#X obj 849 141 sig~ 1;
#X obj 103 260 onepole~ 9500;
#X obj 104 354 delwrite~ \$0-del_0 500;
#X obj 271 352 delwrite~ \$0-del_1 500;
#X obj 432 351 delwrite~ \$0-del_2 500;
#X obj 592 350 delwrite~ \$0-del_3 500;
#X obj 759 352 delwrite~ \$0-del_4 500;
#X obj 926 350 delwrite~ \$0-del_5 500;
#X obj 1087 349 delwrite~ \$0-del_6 500;
#X obj 1247 348 delwrite~ \$0-del_7 500;
#X obj 84 488 *~ 1;
#X obj 255 478 *~ 1.072;
#X obj 449 477 *~ 1.149;
#X obj 591 476 *~ 1.221;
#X obj 798 444 *~ 1.3;
#X obj 972 439 *~ 1.38;
#X obj 1126 400 *~ 1.46;
#X obj 1275 387 *~ 1.532;
#X obj 1077 228 scale~ 0 1 10 200;
#X obj 1078 139 sig~ 0.5;
#X obj 105 302 svf~ 100 0.4;
#X obj 239 897 slide~ 1000 1000;
#X obj 826 100 inlet;
#X obj 1071 99 inlet;
#X obj 241 827 inlet;
#X obj 238 864 sig~;
#X msg 617 170 label \$1;
#X obj 618 220 s \$0-decay;
#X obj 619 126 makefilename %.2f;
#X msg 1231 151 label \$1;
#X obj 1233 107 makefilename %.2f;
#X obj 1232 201 s \$0-size;
#X msg 365 914 label \$1;
#X obj 367 870 makefilename %.2f;
#X obj 366 964 s \$0-dw;
#X obj -345 947 expr~ $v2*$v3 + $v1*(1.0-$v3);
#X obj -122 947 expr~ $v2*$v3 + $v1*(1.0-$v3);
#X obj 849 187 slide~ 1000 1000;
#X obj 1080 185 slide~ 1000 1000;
#X obj 103 219 allpass~ 100 9.757 0.7;
#X obj 103 186 allpass~ 100 3.153 0.7;
#X obj 102 155 allpass~ 100 7.753 0.7;
#X obj 1338 460 *~ 3.71;
#X obj 1331 493 +~;
#X obj 1187 493 +~;
#X obj 1197 412 rand~ 0.48;
#X obj 1194 460 *~ 3.43;
#X obj 1012 486 +~;
#X obj 868 486 +~;
#X obj 878 405 rand~ 0.373;
#X obj 1341 412 rand~ 0.537;
#X obj 875 453 *~ 1.43;
#X obj 1031 443 *~ 2.71;
#X obj 1022 405 rand~ 0.247;
#X obj 848 230 scale~ 0 1 0.22 0.343;
#X connect 0 0 44 0;
#X connect 0 0 82 0;
#X connect 1 0 44 0;
#X connect 1 0 83 0;
#X connect 2 0 36 0;
#X connect 2 0 40 0;
#X connect 3 0 37 0;
#X connect 3 0 41 0;
#X connect 4 0 45 0;
#X connect 4 0 53 0;
#X connect 5 0 46 0;
#X connect 5 0 54 0;
#X connect 6 0 55 0;
#X connect 7 0 56 0;
#X connect 8 0 38 0;
#X connect 8 0 42 0;
#X connect 9 0 39 0;
#X connect 9 0 43 0;
#X connect 10 0 14 0;
#X connect 10 0 15 0;
#X connect 11 0 14 1;
#X connect 11 0 15 1;
#X connect 12 0 16 0;
#X connect 12 0 17 1;
#X connect 13 0 16 1;
#X connect 13 0 17 0;
#X connect 14 0 4 0;
#X connect 15 0 5 0;
#X connect 16 0 6 0;
#X connect 17 0 7 0;
#X connect 20 0 36 1;
#X connect 20 0 40 1;
#X connect 21 0 37 1;
#X connect 21 0 41 1;
#X connect 22 0 38 1;
#X connect 22 0 42 1;
#X connect 23 0 39 1;
#X connect 23 0 43 1;
#X connect 24 0 49 0;
#X connect 25 0 50 0;
#X connect 26 0 51 0;
#X connect 27 0 52 0;
#X connect 28 0 32 0;
#X connect 28 0 33 0;
#X connect 29 0 32 1;
#X connect 29 0 33 1;
#X connect 30 0 34 0;
#X connect 30 0 35 1;
#X connect 31 0 34 1;
#X connect 31 0 35 0;
#X connect 32 0 24 0;
#X connect 33 0 25 0;
#X connect 34 0 26 0;
#X connect 35 0 27 0;
#X connect 36 0 10 0;
#X connect 36 0 12 0;
#X connect 37 0 11 0;
#X connect 37 0 13 0;
#X connect 38 0 10 1;
#X connect 38 0 12 1;
#X connect 39 0 11 1;
#X connect 39 0 13 1;
#X connect 40 0 28 0;
#X connect 40 0 30 0;
#X connect 41 0 29 0;
#X connect 41 0 31 0;
#X connect 42 0 28 1;
#X connect 42 0 30 1;
#X connect 43 0 29 1;
#X connect 43 0 31 1;
#X connect 44 0 88 0;
#X connect 45 1 82 1;
#X connect 46 1 83 1;
#X connect 47 0 84 0;
#X connect 48 0 67 0;
#X connect 57 0 2 0;
#X connect 58 0 3 0;
#X connect 59 0 8 0;
#X connect 60 0 9 0;
#X connect 61 0 95 0;
#X connect 62 0 94 0;
#X connect 63 0 91 0;
#X connect 64 0 90 0;
#X connect 65 0 64 0;
#X connect 65 0 63 0;
#X connect 65 0 62 0;
#X connect 65 0 61 0;
#X connect 65 0 60 0;
#X connect 65 0 59 0;
#X connect 65 0 58 0;
#X connect 65 0 57 0;
#X connect 66 0 85 0;
#X connect 67 1 49 0;
#X connect 67 1 50 0;
#X connect 67 1 51 0;
#X connect 67 1 52 0;
#X connect 67 1 53 0;
#X connect 67 1 54 0;
#X connect 67 1 55 0;
#X connect 67 1 56 0;
#X connect 68 0 82 2;
#X connect 68 0 83 2;
#X connect 69 0 47 0;
#X connect 69 0 75 0;
#X connect 70 0 66 0;
#X connect 70 0 77 0;
#X connect 71 0 72 0;
#X connect 71 0 80 0;
#X connect 72 0 68 0;
#X connect 73 0 74 0;
#X connect 75 0 73 0;
#X connect 76 0 78 0;
#X connect 77 0 76 0;
#X connect 79 0 81 0;
#X connect 80 0 79 0;
#X connect 82 0 18 0;
#X connect 83 0 19 0;
#X connect 84 0 101 0;
#X connect 85 0 65 0;
#X connect 86 0 48 0;
#X connect 87 0 86 0;
#X connect 88 0 87 0;
#X connect 89 0 90 1;
#X connect 90 0 23 0;
#X connect 91 0 22 0;
#X connect 92 0 93 0;
#X connect 93 0 91 1;
#X connect 94 0 21 0;
#X connect 95 0 20 0;
#X connect 96 0 98 0;
#X connect 97 0 89 0;
#X connect 98 0 95 1;
#X connect 99 0 94 1;
#X connect 100 0 99 0;
#X connect 101 0 4 1;
#X connect 101 0 5 1;
#X connect 101 0 6 1;
#X connect 101 0 7 1;
#X connect 101 0 24 1;
#X connect 101 0 25 1;
#X connect 101 0 26 1;
#X connect 101 0 27 1;
#X restore 675 286 pd;
#X f 12;
#X obj 148 590 tgl 25 0 empty empty empty 17 7 0 10 #e4e4e4 #5a5a5a #5a5a5a 0 1;
#X obj 285 483 loadbang;
#X msg -4 539 create;
#X msg 149 556 1;
#X msg 43 554 range 0 127;
#X obj -112 589 scale 0 1 0 127;
#X obj -79 748 scale 0 127 0 1;
#X obj -97 686 daw_storage decay_str;
#X obj 1 632 param decay, f 24;
#X obj 451 586 tgl 25 0 empty empty empty 17 7 0 10 #e4e4e4 #5a5a5a #5a5a5a 0 1;
#X msg 299 535 create;
#X msg 452 552 1;
#X msg 346 550 range 0 127;
#X obj 191 585 scale 0 1 0 127;
#X obj 224 744 scale 0 127 0 1;
#X obj 764 583 tgl 25 0 empty empty empty 17 7 0 10 #e4e4e4 #5a5a5a #5a5a5a 0 1;
#X msg 612 532 create;
#X msg 765 549 1;
#X msg 659 547 range 0 127;
#X obj 504 582 scale 0 1 0 127;
#X obj 537 741 scale 0 127 0 1;
#X obj 304 628 param size, f 24;
#X obj 206 682 daw_storage size_str;
#X obj 519 679 daw_storage dw_str;
#X obj 617 625 param dw, f 24;
#X msg 1 -58 open tree.png, f 11;
#X connect 1 0 47 0;
#X connect 2 0 4 0;
#X connect 4 0 3 0;
#X connect 5 0 21 0;
#X connect 5 1 21 1;
#X connect 7 0 27 0;
#X connect 7 0 21 3;
#X connect 8 0 35 0;
#X connect 8 0 21 4;
#X connect 9 0 21 2;
#X connect 9 0 41 0;
#X connect 12 0 7 0;
#X connect 12 0 8 0;
#X connect 12 0 9 0;
#X connect 12 0 10 0;
#X connect 21 0 6 0;
#X connect 21 1 6 1;
#X connect 22 0 30 1;
#X connect 23 0 24 0;
#X connect 23 0 26 0;
#X connect 23 0 32 0;
#X connect 23 0 34 0;
#X connect 23 0 38 0;
#X connect 23 0 40 0;
#X connect 24 0 30 0;
#X connect 25 0 22 0;
#X connect 26 0 30 0;
#X connect 27 0 29 0;
#X connect 27 0 30 0;
#X connect 28 0 7 0;
#X connect 29 0 28 0;
#X connect 30 0 28 0;
#X connect 31 0 43 1;
#X connect 32 0 43 0;
#X connect 33 0 31 0;
#X connect 34 0 43 0;
#X connect 35 0 43 0;
#X connect 35 0 44 0;
#X connect 36 0 8 0;
#X connect 37 0 46 1;
#X connect 38 0 46 0;
#X connect 39 0 37 0;
#X connect 40 0 46 0;
#X connect 41 0 45 0;
#X connect 41 0 46 0;
#X connect 42 0 9 0;
#X connect 43 0 36 0;
#X connect 44 0 36 0;
#X connect 45 0 42 0;
#X connect 46 0 42 0;
#X connect 47 0 0 0;
