#N canvas 827 239 420 420 12;
#N canvas 0 22 600 600 (subpatch) 1;
#X obj -174 -426 pic 0 tree.png empty empty 0 0;
#X obj -167 -14 loadbang;
#X msg -109 -47 open tree.png, f 11;
#X connect 1 0 2 0;
#X connect 2 0 0 0;
#X coords 0 0 1 1 502 460 1 0 0;
#X restore -78 -36 pd;
#X obj 1362 185 loadbang;
#X obj 1363 274 s pd, f 8;
#X msg 1363 221 pluginmode;
#X obj 671 114 adc~;
#X obj 772 421 dac~;
#X obj 21 46 knob 63 10 10000 0 4000 empty empty #eee7dc #897c82 #897c82 1 0 0 0 1 270 0 0 10;
#X obj 128 48 knob 63 0 2.5 0 1 empty empty #eee7dc #897c82 #897c82 1 0 0 0 1 270 0 0 0;
#X obj 222 48 knob 62 -1 1 0 0 empty empty #eee7dc #897c82 #897c82 1 0 0 0 1 270 0 0 0;
#X obj 314 48 knob 63 0 1 0 0.5 empty empty #eee7dc #897c82 #897c82 1 0 0 0 1 270 0 0 1;
#X obj 348 -80 loadbang;
#X obj 14 28 cnv 15 8 9 empty empty time 16 6 0 14 #fff9f2 #d27b00 0;
#X obj 126 27 cnv 15 64 12 empty empty spd 16 6 0 14 #fff9f2 #d27b00 0;
#X obj 220 31 cnv 15 8 9 empty empty LR 16 6 0 14 #fff9f2 #d27b00 0;
#X obj 317 33 cnv 15 8 9 empty empty d/w 16 6 0 14 #fff9f2 #d27b00 0;
#X obj 130 117 cnv 15 64 10 empty \$0-spd 0.50 16 6 0 14 #fff9f2 #d27b00 0;
#X obj 225 120 cnv 15 8 9 empty \$0-LR 0.00 16 6 0 14 #fff9f2 #d27b00 0;
#X obj 320 120 cnv 15 8 8 empty \$0-dw 1.00 16 6 0 14 #fff9f2 #d27b00 0;
#X obj 10 122 cnv 15 8 9 empty \$0-time 9335.98ms 16 6 0 14 #fff9f2 #d27b00 0;
#N canvas 0 22 450 300 (subpatch) 0;
#X obj -269 234 inlet~;
#X obj -94 236 inlet~;
#X obj 52 637 delread4~ \$0-del_0;
#X obj -321 1006 outlet~;
#X obj -144 1005 outlet~;
#X obj -149 822 svf~ 5 0.5;
#X obj 16 812 svf~ 5 0.5;
#X obj 944 928 slide~ 1000 1000;
#X obj 956 856 inlet;
#X obj 943 895 sig~;
#X msg 93 157 label \$1;
#X msg 515 237 label \$1;
#X obj 517 193 makefilename %.2f;
#X msg 1070 945 label \$1;
#X obj 1072 901 makefilename %.2f;
#X obj 1071 995 s \$0-dw;
#X obj -345 947 expr~ $v2*$v3 + $v1*(1.0-$v3);
#X obj -122 947 expr~ $v2*$v3 + $v1*(1.0-$v3);
#X obj 203 640 delread4~ \$0-del_1;
#X obj 110 434 samplerate~;
#X obj 134 403 bng 19 250 50 0 empty empty empty 17 7 0 10 #dfdfdf #000000 #000000;
#X obj 125 359 loadbang;
#X obj 49 513 fexpr~ fmod($x1[0]+$y1[-1] \, 1);
#X obj 119 700 delwrite~ \$0-del_3 4000;
#X obj -48 702 delwrite~ \$0-del_2 4000;
#X obj 382 662 sig~ 0.25;
#X obj 256 752 delread4~ \$0-del_2;
#X obj 407 755 delread4~ \$0-del_3;
#X obj 478 661 sig~ 0.25;
#X obj 116 319 delwrite~ \$0-del_1 10000;
#X obj -51 321 delwrite~ \$0-del_0 10000;
#X floatatom 279 120 5 0 0 0 - - - 12;
#X obj 199 584 *~;
#X obj 92 581 *~;
#X obj 262 370 sig~;
#X obj 221 440 expr~ 2000 * $v2/ $v1;
#X obj 347 372 sig~;
#X obj 423 307 bng 25 250 50 0 empty empty empty 17 7 0 10 #e3dfd9 #5a5a5a #5a5a5a;
#X obj 380 282 bng 25 250 50 0 empty empty empty 17 7 0 10 #e3dfd9 #5a5a5a #5a5a5a;
#X msg 383 342 1;
#X obj 335 274 bng 25 250 50 0 empty empty empty 17 7 0 10 #e3dfd9 #5a5a5a #5a5a5a;
#X msg 338 334 2;
#X msg 420 368 0.75;
#X obj 375 240 sel 0 1 2;
#X obj 50 476 /~;
#X obj 324 702 slide~ 18000 18000;
#X obj 474 703 slide~ 18000 18000;
#X obj 234 402 slide~ 18000 18000;
#X obj 269 66 inlet;
#X obj 95 113 makefilename %.2fms;
#X obj 94 207 s \$0-time;
#X obj 379 160 inlet;
#X obj 378 194 int;
#X msg 472 350 0.5;
#X obj 516 287 s \$0-spd;
#X obj 708 338 inlet;
#X msg 822 427 label \$1;
#X obj 824 383 makefilename %.2f;
#X obj 823 477 s \$0-LR;
#X obj 562 551 scale -1 1 1000 0;
#X obj 423 553 scale -1 1 0 1000;
#X connect 0 0 16 0;
#X connect 0 0 30 0;
#X connect 1 0 17 0;
#X connect 1 0 29 0;
#X connect 2 0 24 0;
#X connect 5 1 16 1;
#X connect 6 1 17 1;
#X connect 7 0 16 2;
#X connect 7 0 17 2;
#X connect 8 0 9 0;
#X connect 8 0 14 0;
#X connect 9 0 7 0;
#X connect 10 0 50 0;
#X connect 11 0 54 0;
#X connect 12 0 11 0;
#X connect 13 0 15 0;
#X connect 14 0 13 0;
#X connect 16 0 3 0;
#X connect 17 0 4 0;
#X connect 18 0 23 0;
#X connect 19 0 44 1;
#X connect 20 0 19 0;
#X connect 21 0 19 0;
#X connect 22 0 32 0;
#X connect 22 0 33 0;
#X connect 25 0 45 0;
#X connect 26 0 5 0;
#X connect 27 0 6 0;
#X connect 28 0 46 0;
#X connect 31 0 34 0;
#X connect 31 0 49 0;
#X connect 32 0 18 0;
#X connect 33 0 2 0;
#X connect 34 0 47 0;
#X connect 35 0 44 0;
#X connect 36 0 35 1;
#X connect 37 0 42 0;
#X connect 37 0 53 0;
#X connect 38 0 39 0;
#X connect 39 0 36 0;
#X connect 39 0 12 0;
#X connect 40 0 41 0;
#X connect 41 0 36 0;
#X connect 41 0 12 0;
#X connect 42 0 36 0;
#X connect 43 0 37 0;
#X connect 43 1 38 0;
#X connect 43 2 40 0;
#X connect 44 0 22 0;
#X connect 45 0 26 0;
#X connect 46 0 27 0;
#X connect 47 0 32 1;
#X connect 47 0 33 1;
#X connect 47 0 35 0;
#X connect 48 0 31 0;
#X connect 49 0 10 0;
#X connect 51 0 52 0;
#X connect 52 0 43 0;
#X connect 53 0 12 0;
#X connect 55 0 57 0;
#X connect 55 0 59 0;
#X connect 55 0 60 0;
#X connect 56 0 58 0;
#X connect 57 0 56 0;
#X connect 59 0 28 0;
#X connect 60 0 25 0;
#X restore 746 328 pd;
#X f 15;
#X obj 135 704 tgl 25 0 empty empty empty 17 7 0 10 #e4e4e4 #5a5a5a #5a5a5a 0 1;
#X obj 272 597 loadbang;
#X msg -17 653 create;
#X msg 136 670 1;
#X msg 30 668 range 0 127;
#X obj -125 703 scale 0 1 0 127;
#X obj -92 862 scale 0 127 0 1;
#X obj 438 700 tgl 25 0 empty empty empty 17 7 0 10 #e4e4e4 #5a5a5a #5a5a5a 0 1;
#X msg 286 649 create;
#X msg 439 666 1;
#X msg 333 664 range 0 127;
#X obj 178 699 scale 0 1 0 127;
#X obj 211 858 scale 0 127 0 1;
#X obj 764 583 tgl 25 0 empty empty empty 17 7 0 10 #e4e4e4 #5a5a5a #5a5a5a 0 1;
#X msg 599 646 create;
#X msg 765 549 1;
#X msg 646 661 range 0 127;
#X obj 491 696 scale 0 1 0 127;
#X obj 524 855 scale 0 127 0 1;
#X obj -12 746 param time, f 24;
#X obj -110 800 daw_storage time_str;
#X obj 291 742 param spd, f 24;
#X obj 193 796 daw_storage spd_str;
#X obj 604 739 param LR, f 24;
#X obj 506 793 daw_storage LR_str;
#X obj 1078 599 tgl 25 0 empty empty empty 17 7 0 10 #e4e4e4 #5a5a5a #5a5a5a 0 1;
#X msg 913 662 create;
#X msg 1079 565 1;
#X msg 960 677 range 0 127;
#X obj 805 712 scale 0 1 0 127;
#X obj 838 871 scale 0 127 0 1;
#X obj 918 755 param LR, f 24;
#X obj 820 809 daw_storage LR_str;
#X connect 1 0 3 0;
#X connect 3 0 2 0;
#X connect 4 0 19 0;
#X connect 4 1 19 1;
#X connect 6 0 25 0;
#X connect 6 0 19 2;
#X connect 7 0 31 0;
#X connect 7 0 19 3;
#X connect 8 0 37 0;
#X connect 8 0 19 4;
#X connect 9 0 19 5;
#X connect 9 0 49 0;
#X connect 10 0 6 0;
#X connect 10 0 7 0;
#X connect 10 0 8 0;
#X connect 10 0 9 0;
#X connect 19 0 5 0;
#X connect 19 1 5 1;
#X connect 20 0 39 1;
#X connect 21 0 22 0;
#X connect 21 0 24 0;
#X connect 21 0 28 0;
#X connect 21 0 30 0;
#X connect 21 0 34 0;
#X connect 21 0 36 0;
#X connect 21 0 46 0;
#X connect 21 0 48 0;
#X connect 22 0 39 0;
#X connect 23 0 20 0;
#X connect 24 0 39 0;
#X connect 25 0 39 0;
#X connect 25 0 40 0;
#X connect 26 0 6 0;
#X connect 27 0 41 1;
#X connect 28 0 41 0;
#X connect 29 0 27 0;
#X connect 30 0 41 0;
#X connect 31 0 41 0;
#X connect 31 0 42 0;
#X connect 32 0 7 0;
#X connect 33 0 43 1;
#X connect 34 0 43 0;
#X connect 35 0 33 0;
#X connect 36 0 43 0;
#X connect 37 0 43 0;
#X connect 37 0 44 0;
#X connect 38 0 8 0;
#X connect 39 0 26 0;
#X connect 40 0 26 0;
#X connect 41 0 32 0;
#X connect 42 0 32 0;
#X connect 43 0 38 0;
#X connect 44 0 38 0;
#X connect 45 0 51 1;
#X connect 46 0 51 0;
#X connect 47 0 45 0;
#X connect 48 0 51 0;
#X connect 49 0 51 0;
#X connect 49 0 52 0;
#X connect 50 0 9 0;
#X connect 51 0 50 0;
#X connect 52 0 50 0;
