#N canvas 827 239 420 420 12;
#X obj 0 0 pic 0 ttt.jpg empty empty 0 0;
#X obj -1 -105 loadbang;
#X obj 1147 333 loadbang;
#X obj 1148 422 s pd, f 8;
#X msg 1148 369 pluginmode;
#X msg 1 -58 open ttt.jpg, f 11;
#N canvas 0 25 1440 786 (subpatch) 1;
#X obj 412 53 inlet~;
#X obj 820 753 outlet~;
#X obj 901 297 expr~ exp($v1 / $v2);
#X floatatom 698 88 8 0.0001 300 0 - - - 0;
#X obj 1096 297 expr~ exp($v1 / $v2);
#X floatatom 775 89 8 0.01 1000 0 - - - 0;
#X text 706 64 attack;
#X text 795 64 rel;
#X obj 791 300 abs~;
#X obj 798 356 fexpr~ if($x1[0] > $y1[-1] \, (1 - $x2[0])*$x1[0] + $x2[0]*$y1[-1] \, (1 - $x3[0])*$x1[0] + $x3[0]*$y1[-1]), f 49;
#X obj 818 498 expr~ if($v1 > $v2 \, pow($v1/$v2 \, (1 / $v3) -1) \, 1);
#X floatatom 908 87 6 1 1000 0 - - - 0;
#X text 906 63 ratio;
#X obj 1337 296 sig~ 4;
#X obj 1063 198 sig~ 1;
#X floatatom 852 88 5 -30 0 0 - - - 0;
#X text 848 66 thresh;
#X obj 1183 170 sig~ -4;
#X obj 764 529 *~;
#X obj 752 241 +~;
#X floatatom 641 87 5 -10 20 0 - - - 0;
#X obj 707 141 sig~ 1;
#X obj 680 219 *~;
#X text 640 64 pregain;
#X floatatom 987 89 5 -10 20 0 - - - 0;
#X obj 829 600 sig~ 1;
#X obj 777 669 *~;
#X text 978 65 postgain;
#X obj 1527 314 abs~;
#X obj 1534 370 fexpr~ if($x1[0] > $y1[-1] \, (1 - $x2[0])*$x1[0] + $x2[0]*$y1[-1] \, (1 - $x3[0])*$x1[0] + $x3[0]*$y1[-1]), f 49;
#X obj 1554 512 expr~ if($v1 > $v2 \, pow($v1/$v2 \, (1 / $v3) -1) \, 1);
#X obj 1500 543 *~;
#X obj 1488 255 +~;
#X obj 1485 215 *~;
#X obj 1513 683 *~;
#X obj 1473 101 inlet~;
#X obj 1521 751 outlet~;
#X text 897 -20 compressor;
#X obj 1203 209 sig~ 200;
#X obj 683 22 inlet;
#X obj 743 21 inlet;
#X obj 796 23 inlet;
#X obj 851 26 inlet;
#X obj 909 30 inlet;
#X obj 976 23 inlet;
#X obj 32 465 s \$0-pregain;
#X obj 376 374 cyclone/prepend label;
#X obj 554 379 cyclone/prepend label;
#X obj 376 420 s \$0-comprel;
#X obj 554 425 s \$0-compth;
#X obj 210 421 s \$0-compatt;
#X obj 377 567 cyclone/prepend label;
#X obj 555 572 cyclone/prepend label;
#X obj 555 618 s \$0-postgain;
#X obj 377 613 s \$0-ratio;
#X obj 210 375 cyclone/prepend label;
#X msg 35 412 label \$1;
#X obj 37 368 makefilename %.2fdB;
#X obj 571 96 dbtoa;
#X obj 208 337 makefilename %.2fms;
#X obj 375 340 makefilename %.2fms;
#X obj 556 339 makefilename %.2fdB;
#X obj 1041 106 dbtoa;
#X obj 383 495 makefilename %.2f;
#X obj 551 512 makefilename %.2fdB;
#X obj 1175 396 expr~ pow(10.0 \, $v1 / 20.0);
#X obj 1184 352 lop~ 25;
#X obj 1336 340 lop~ 100;
#X obj 1056 228 lop~ 100;
#X obj 1200 244 lop~ 100;
#X obj 707 163 lop~ 100;
#X obj 888 176 samplerate~;
#X obj 890 139 loadbang;
#X obj 845 225 expr -2000 * 3.14159 / $f1;
#X obj 853 168 bng 25 250 50 0 empty empty empty 17 7 0 10 #e3dfd9 #5a5a5a #5a5a5a;
#X obj 852 255 sig~ -0.065;
#X connect 0 0 22 0;
#X connect 2 0 9 1;
#X connect 2 0 29 1;
#X connect 3 0 14 0;
#X connect 3 0 59 0;
#X connect 4 0 9 2;
#X connect 4 0 29 2;
#X connect 5 0 38 0;
#X connect 5 0 60 0;
#X connect 8 0 9 0;
#X connect 9 0 10 0;
#X connect 10 0 18 1;
#X connect 11 0 13 0;
#X connect 11 0 63 0;
#X connect 13 0 67 0;
#X connect 14 0 68 0;
#X connect 15 0 17 0;
#X connect 15 0 61 0;
#X connect 17 0 66 0;
#X connect 18 0 26 0;
#X connect 19 0 8 0;
#X connect 19 0 18 0;
#X connect 20 0 21 0;
#X connect 21 0 70 0;
#X connect 22 0 19 0;
#X connect 24 0 25 0;
#X connect 25 0 26 1;
#X connect 25 0 34 1;
#X connect 26 0 1 0;
#X connect 28 0 29 0;
#X connect 29 0 30 0;
#X connect 30 0 31 1;
#X connect 31 0 34 0;
#X connect 32 0 28 0;
#X connect 32 0 31 0;
#X connect 33 0 32 0;
#X connect 34 0 36 0;
#X connect 35 0 33 0;
#X connect 38 0 69 0;
#X connect 39 0 58 0;
#X connect 39 0 57 0;
#X connect 40 0 3 0;
#X connect 41 0 5 0;
#X connect 42 0 15 0;
#X connect 43 0 11 0;
#X connect 44 0 62 0;
#X connect 44 0 64 0;
#X connect 46 0 48 0;
#X connect 47 0 49 0;
#X connect 51 0 54 0;
#X connect 52 0 53 0;
#X connect 55 0 50 0;
#X connect 56 0 45 0;
#X connect 57 0 56 0;
#X connect 58 0 20 0;
#X connect 59 0 55 0;
#X connect 60 0 46 0;
#X connect 61 0 47 0;
#X connect 62 0 24 0;
#X connect 63 0 51 0;
#X connect 64 0 52 0;
#X connect 65 0 10 1;
#X connect 65 0 30 1;
#X connect 66 0 65 0;
#X connect 67 0 10 2;
#X connect 67 0 30 2;
#X connect 68 0 2 1;
#X connect 69 0 4 1;
#X connect 70 0 22 1;
#X connect 70 0 33 1;
#X connect 71 0 73 0;
#X connect 72 0 71 0;
#X connect 73 0 75 0;
#X connect 74 0 71 0;
#X connect 75 0 2 0;
#X connect 75 0 4 0;
#X coords 0 -1 1 1 200 120 1 100 100;
#X restore 775 306 pd;
#N canvas 0 25 1440 785 (subpatch) 1;
#N canvas 131 30 1005 699 (subpatch) 1;
#X obj 412 53 inlet~;
#X obj 243 747 outlet~;
#X obj 507 293 abs~;
#X obj 514 349 fexpr~ if($x1[0] > $y1[-1] \, (1 - $x2[0])*$x1[0] + $x2[0]*$y1[-1] \, (1 - $x3[0])*$x1[0] + $x3[0]*$y1[-1]), f 49;
#X obj 534 491 expr~ if($v1 > $v2 \, pow($v1/$v2 \, (1 / $v3) -1) \, 1);
#X obj 1092 376 sig~ 4;
#X obj 480 522 *~;
#X obj 468 234 +~;
#X obj 545 593 sig~ 1;
#X obj 493 662 *~;
#X obj 1243 307 abs~;
#X obj 1250 363 fexpr~ if($x1[0] > $y1[-1] \, (1 - $x2[0])*$x1[0] + $x2[0]*$y1[-1] \, (1 - $x3[0])*$x1[0] + $x3[0]*$y1[-1]), f 49;
#X obj 1270 505 expr~ if($v1 > $v2 \, pow($v1/$v2 \, (1 / $v3) -1) \, 1);
#X obj 1216 536 *~;
#X obj 1204 248 +~;
#X obj 1229 676 *~;
#X obj 1123 92 inlet~;
#X obj 1077 742 outlet~;
#X text 764 30 compressor;
#X obj 877 365 sig~ -10;
#X obj 859 424 expr~ pow(10.0 \, $v1 / 20.0);
#X obj 667 103 samplerate~;
#X obj 669 66 loadbang;
#X obj 624 152 expr -2000 * 3.14159 / $f1;
#X obj 632 95 bng 25 250 50 0 empty empty empty 17 7 0 10 #e3dfd9 #5a5a5a #5a5a5a;
#X obj 690 295 sig~;
#X obj 686 240 expr exp($f1 );
#X obj 830 232 expr exp($f1 / 200);
#X obj 830 264 sig~;
#X connect 0 0 7 0;
#X connect 2 0 3 0;
#X connect 3 0 4 0;
#X connect 4 0 6 1;
#X connect 5 0 4 2;
#X connect 5 0 12 2;
#X connect 6 0 9 0;
#X connect 7 0 2 0;
#X connect 7 0 6 0;
#X connect 8 0 9 1;
#X connect 8 0 15 1;
#X connect 9 0 1 0;
#X connect 10 0 11 0;
#X connect 11 0 12 0;
#X connect 12 0 13 1;
#X connect 13 0 15 0;
#X connect 14 0 10 0;
#X connect 14 0 13 0;
#X connect 15 0 17 0;
#X connect 16 0 14 0;
#X connect 19 0 20 0;
#X connect 20 0 4 1;
#X connect 20 0 12 1;
#X connect 21 0 23 0;
#X connect 22 0 21 0;
#X connect 23 0 26 0;
#X connect 23 0 27 0;
#X connect 24 0 21 0;
#X connect 25 0 3 1;
#X connect 25 0 11 1;
#X connect 26 0 25 0;
#X connect 27 0 28 0;
#X connect 28 0 3 2;
#X connect 28 0 11 2;
#X coords 0 -1 1 1 200 120 1 100 100;
#X restore 537 209 pd;
#N canvas 67 68 1440 786 (subpatch) 1;
#X obj 412 53 inlet~;
#X obj 481 612 outlet~;
#X obj 631 261 expr~ exp($v1 / $v2);
#X obj 849 262 expr~ exp($v1 / $v2);
#X obj 507 293 abs~;
#X obj 514 349 fexpr~ if($x1[0] > $y1[-1] \, (1 - $x2[0])*$x1[0] + $x2[0]*$y1[-1] \, (1 - $x3[0])*$x1[0] + $x3[0]*$y1[-1]), f 49;
#X obj 534 491 expr~ if($v1 > $v2 \, pow($v1/$v2 \, (1 / $v3) -1) \, 1);
#X obj 480 522 *~;
#X obj 468 234 +~;
#X obj 1243 307 abs~;
#X obj 1250 363 fexpr~ if($x1[0] > $y1[-1] \, (1 - $x2[0])*$x1[0] + $x2[0]*$y1[-1] \, (1 - $x3[0])*$x1[0] + $x3[0]*$y1[-1]), f 49;
#X obj 1270 505 expr~ if($v1 > $v2 \, pow($v1/$v2 \, (1 / $v3) -1) \, 1);
#X obj 1216 536 *~;
#X obj 1204 248 +~;
#X obj 1123 92 inlet~;
#X obj 1214 618 outlet~;
#X obj 1008 330 sig~ 1000;
#X obj 1280 57 inlet~;
#X obj 738 223 sig~ 0.001;
#X obj 1428 61 inlet~;
#X obj 833 412 expr~ pow(10.0 \, $v1 / 20.0);
#X obj 619 141 expr~ -2000 * 3.14159 / 48000, f 37;
#X obj 1439 177 lop~ 100;
#X obj 1285 155 lop~ 100;
#X connect 0 0 8 0;
#X connect 2 0 5 1;
#X connect 2 0 10 1;
#X connect 3 0 5 2;
#X connect 3 0 10 2;
#X connect 4 0 5 0;
#X connect 5 0 6 0;
#X connect 6 0 7 1;
#X connect 7 0 1 0;
#X connect 8 0 4 0;
#X connect 8 0 7 0;
#X connect 9 0 10 0;
#X connect 10 0 11 0;
#X connect 11 0 12 1;
#X connect 12 0 15 0;
#X connect 13 0 9 0;
#X connect 13 0 12 0;
#X connect 14 0 13 0;
#X connect 16 0 6 2;
#X connect 16 0 11 2;
#X connect 17 0 23 0;
#X connect 18 0 2 1;
#X connect 19 0 22 0;
#X connect 20 0 6 1;
#X connect 20 0 11 1;
#X connect 21 0 2 0;
#X connect 21 0 3 0;
#X connect 22 0 3 1;
#X connect 23 0 20 0;
#X coords 0 -1 1 1 200 120 1 100 100;
#X restore 537 368 pd;
#X obj 537 105 inlet~;
#X obj 539 696 outlet~;
#X obj 735 694 outlet~;
#X obj 730 105 inlet~;
#X obj 284 306 sig~ -1;
#X floatatom 327 142 5 -20 0 0 - - - 0;
#X text 319 118 threshold;
#X floatatom 405 142 5 1 1000 0 - - - 0;
#X obj 381 304 sig~ 400;
#X text 397 118 release;
#X text 339 58 limiter;
#N canvas 16 50 804 720 (subpatch) 1;
#X obj 317 558 outlet~;
#X obj 419 557 outlet~;
#X obj 326 115 inlet~;
#X obj 390 116 inlet~;
#X obj 661 104 inlet~;
#X obj 544 277 *~;
#X text 691 135 dbtoamp;
#X text 652 193 initial_gain;
#X obj 326 323 *~;
#X obj 418 322 *~;
#X obj 421 489 clip~ -1 1;
#X obj 317 490 clip~ -1 1;
#X obj 418 385 expr~ if($v1<-$v2 \, -$v2 \, $v1);
#X obj 420 425 expr~ if($v1>$v2 \, $v2 \, $v1);
#X obj 202 384 expr~ if($v1<-$v2 \, -$v2 \, $v1);
#X obj 204 424 expr~ if($v1>$v2 \, $v2 \, $v1);
#X obj 667 290 snapshot~;
#X floatatom 667 348 9 0 0 0 - - - 16;
#X obj 768 311 bng 25 250 50 0 empty empty empty 17 7 0 10 #e3dfd9 #5a5a5a #5a5a5a;
#X obj 422 172 expr~ pow(10.0 \, 10 * (1.0 - (1.0/4.0))/ 40.0);
#X obj 727 163 expr~ pow(10.0 \, $v1/20.0);
#X connect 2 0 8 0;
#X connect 3 0 9 0;
#X connect 4 0 20 0;
#X connect 5 0 8 1;
#X connect 5 0 9 1;
#X connect 8 0 14 0;
#X connect 9 0 12 0;
#X connect 10 0 1 0;
#X connect 11 0 0 0;
#X connect 12 0 13 0;
#X connect 13 0 10 0;
#X connect 14 0 15 0;
#X connect 15 0 11 0;
#X connect 16 0 17 0;
#X connect 18 0 16 0;
#X connect 19 0 5 0;
#X connect 20 0 5 1;
#X connect 20 0 12 1;
#X connect 20 0 13 1;
#X connect 20 0 15 1;
#X connect 20 0 14 1;
#X connect 20 0 16 0;
#X coords 0 -1 1 1 200 120 1 100 100;
#X restore 539 525 pd;
#X obj 395 37 inlet;
#X obj 455 39 inlet;
#X msg 95 433 label \$1;
#X obj 97 389 makefilename %.2fdB;
#X obj 92 486 s \$0-Lth;
#X msg 259 453 label \$1;
#X obj 261 409 makefilename %.2fms;
#X obj 256 506 s \$0-Lrelease;
#X connect 0 0 1 0;
#X connect 0 1 1 1;
#X connect 1 0 13 0;
#X connect 1 1 13 1;
#X connect 2 0 0 0;
#X connect 5 0 0 1;
#X connect 6 0 1 2;
#X connect 6 0 13 2;
#X connect 7 0 6 0;
#X connect 9 0 10 0;
#X connect 10 0 1 3;
#X connect 13 0 3 0;
#X connect 13 1 4 0;
#X connect 14 0 7 0;
#X connect 14 0 17 0;
#X connect 15 0 9 0;
#X connect 15 0 20 0;
#X connect 16 0 18 0;
#X connect 17 0 16 0;
#X connect 19 0 21 0;
#X connect 20 0 19 0;
#X coords 0 -1 1 1 200 120 1 100 100;
#X restore 773 451 pd;
#X obj 772 111 adc~;
#X obj 780 652 dac~;
#X obj 17 315 knob 63 1 30 0 4 empty empty #3d7088 #ffa000 #ffa000 1 0 0 0 1 270 0 0 1;
#X obj 116 316 knob 63 -10 20 0 0 empty empty #3d7088 #ffa000 #ffa000 1 0 0 0 1 270 0 0 0;
#X obj 225 317 knob 62 -20 0 0 -0.5 empty empty #3d7088 #ffa000 #ffa000 1 0 0 0 1 270 0 0 0;
#X obj 326 317 knob 63 0.1 1000 0 400 empty empty #3d7088 #ffa000 #ffa000 1 0 0 0 1 270 0 0 10;
#X obj 17 20 cnv 15 82 9 empty empty PreGain 16 6 0 14 #3d7088 #d27b00 0;
#X obj 26 40 knob 63 -20 20 0 0 empty empty #3d7088 #ffa000 #ffa000 1 0 0 0 1 270 0 0 0;
#X obj 121 41 knob 63 0.01 400 1.5 10 empty empty #3d7088 #ffa000 #ffa000 1 0 0 0 1 270 0 0 0.01;
#X obj 227 42 knob 63 20 1000 1.5 300 empty empty #3d7088 #ffa000 #ffa000 1 0 0 0 1 270 0 0 20;
#X obj 325 43 knob 63 -30 0 0 -6 empty empty #3d7088 #ffa000 #ffa000 1 0 0 0 1 270 0 0 0;
#X obj 521 18 loadbang;
#X obj 112 20 cnv 15 82 9 empty empty C_attack 16 6 0 14 #3d7088 #d27b00 0;
#X obj 219 20 cnv 15 82 9 empty empty C_release 16 6 0 14 #3d7088 #d27b00 0;
#X obj 316 20 cnv 15 82 9 empty empty C_Thresh 16 6 0 14 #3d7088 #d27b00 0;
#X obj 14 115 cnv 15 82 9 empty \$0-pregain 0.00dB 16 6 0 14 #3d7088 #d27b00 0;
#X obj 112 114 cnv 15 82 9 empty \$0-compatt 10.00ms 16 6 0 14 #3d7088 #d27b00 0;
#X obj 220 115 cnv 15 82 9 empty \$0-comprel 300.00ms 16 6 0 14 #3d7088 #d27b00 0;
#X obj 321 115 cnv 15 82 9 empty \$0-compth -6.00dB 16 6 0 14 #3d7088 #d27b00 0;
#X obj 503 279 loadbang;
#X obj 11 293 cnv 15 82 9 empty empty ratio 16 6 0 14 #3d7088 #d27b00 0;
#X obj 108 293 cnv 15 82 9 empty empty postGain 16 6 0 14 #3d7088 #d27b00 0;
#X obj 216 291 cnv 15 82 9 empty empty L_thresh 16 6 0 14 #3d7088 #d27b00 0;
#X obj 318 294 cnv 15 82 9 empty empty L_release 16 6 0 14 #3d7088 #d27b00 0;
#X obj 107 390 cnv 15 82 9 empty \$0-postgain 0.00dB 16 6 0 14 #3d7088 #d27b00 0;
#X obj 217 391 cnv 15 82 9 empty \$0-Lth -0.50dB 16 6 0 14 #3d7088 #d27b00 0;
#X obj 317 391 cnv 15 82 9 empty \$0-Lrelease 400.00ms 16 6 0 14 #3d7088 #d27b00 0;
#X obj 12 389 cnv 15 82 9 empty \$0-ratio 4.00 16 6 0 14 #3d7088 #d27b00 0;
#X text 993 484 limiter;
#X text 1007 368 compressor;
#X obj 100 576 tgl 25 0 empty empty empty 17 7 0 10 #e4e4e4 #5a5a5a #5a5a5a 0 1;
#X obj -44 581 scale -20 20 0 127;
#X obj 9 471 loadbang;
#X msg 28 522 create;
#X obj -47 731 scale 0 127 -20 20;
#X obj -47 612 param PreGain, f 24;
#X obj 242 500 tgl 25 0 empty empty empty 17 7 0 10 #e4e4e4 #5a5a5a #5a5a5a 0 1;
#X msg 90 508 1;
#X msg 75 537 range 0 127;
#X obj 152 583 cyclone/scale 0.01 400 0 127;
#X obj 148 737 cyclone/scale 0 127 0.01 400;
#X obj 499 555 tgl 25 0 empty empty empty 17 7 0 10 #e4e4e4 #5a5a5a #5a5a5a 0 1;
#X obj 349 584 cyclone/scale 20 1000 0 127;
#X obj 350 722 cyclone/scale 0 127 20 1000;
#X obj 130 911 tgl 25 0 empty empty empty 17 7 0 10 #e4e4e4 #5a5a5a #5a5a5a 0 1;
#X obj 40 797 loadbang;
#X msg 46 850 create;
#X obj 272 835 tgl 25 0 empty empty empty 17 7 0 10 #e4e4e4 #5a5a5a #5a5a5a 0 1;
#X msg 122 826 1;
#X msg 163 836 range 0 127;
#X obj 529 890 tgl 25 0 empty empty empty 17 7 0 10 #e4e4e4 #5a5a5a #5a5a5a 0 1;
#X obj 751 893 tgl 25 0 empty empty empty 17 7 0 10 #e4e4e4 #5a5a5a #5a5a5a 0 1;
#X obj -17 947 param ratio, f 24;
#X obj -14 916 scale 1 30 0 127;
#X obj -15 1036 scale 0 127 1 30;
#X obj 179 949 param postgain, f 24;
#X obj 182 918 cyclone/scale -10 20 0 127;
#X obj 178 1032 cyclone/scale 0 127 -10 20;
#X obj 379 919 cyclone/scale -20 0 0 127;
#X obj 376 1027 cyclone/scale 0 127 -20 0;
#X obj 601 922 cyclone/scale 0.1 1000 0 127;
#X obj 598 1025 cyclone/scale 0 127 0.1 1000;
#X obj 149 614 param Cattack, f 24;
#X obj 346 615 param Crelease, f 24;
#X obj 376 950 param Lthresh, f 24;
#X obj 598 953 param Lrelease, f 24;
#X obj -65 647 daw_storage Pregain_str;
#X obj 128 645 daw_storage Cattack_str;
#X obj 327 649 daw_storage Crelease_str;
#X obj -59 977 daw_storage ratio_str;
#X obj 145 982 daw_storage postgain_str;
#X obj 359 982 daw_storage Lthresh_str;
#X obj 583 979 daw_storage Lrelease_str;
#X obj 717 556 tgl 25 0 empty empty empty 17 7 0 10 #e4e4e4 #5a5a5a #5a5a5a 0 1;
#X obj 564 616 param CThresh, f 24;
#X obj 545 650 daw_storage CThresh_str;
#X obj 567 585 cyclone/scale -30 0 0 127;
#X obj 568 723 cyclone/scale 0 127 -30 0;
#X obj 773 179 else/highpass~ 5 0.707;
#X obj 954 177 else/highpass~ 5 0.707;
#X obj 1086 63 samplerate~;
#X floatatom 1086 90 7 0 0 0 - - - 16;
#X obj 1086 37 bng 19 250 50 0 empty empty empty 17 7 0 10 #dfdfdf #000000 #000000;
#X obj 953 214 else/lowpass~ 18000 0.707;
#X obj 772 216 else/lowpass~ 18000 0.707;
#X connect 1 0 5 0;
#X connect 2 0 4 0;
#X connect 4 0 3 0;
#X connect 5 0 0 0;
#X connect 6 0 7 2;
#X connect 6 1 7 3;
#X connect 7 0 9 0;
#X connect 7 1 9 1;
#X connect 8 0 86 0;
#X connect 8 1 87 0;
#X connect 10 0 6 5;
#X connect 10 0 61 0;
#X connect 11 0 6 6;
#X connect 11 0 64 0;
#X connect 12 0 7 0;
#X connect 12 0 66 0;
#X connect 13 0 7 1;
#X connect 13 0 68 0;
#X connect 15 0 6 1;
#X connect 15 0 39 0;
#X connect 16 0 6 2;
#X connect 16 0 47 0;
#X connect 17 0 6 3;
#X connect 17 0 50 0;
#X connect 18 0 6 4;
#X connect 18 0 84 0;
#X connect 19 0 15 0;
#X connect 19 0 16 0;
#X connect 19 0 17 0;
#X connect 19 0 18 0;
#X connect 27 0 10 0;
#X connect 27 0 11 0;
#X connect 27 0 12 0;
#X connect 27 0 13 0;
#X connect 38 0 43 1;
#X connect 39 0 43 0;
#X connect 39 0 74 0;
#X connect 40 0 41 0;
#X connect 40 0 46 0;
#X connect 41 0 43 0;
#X connect 41 0 70 0;
#X connect 41 0 71 0;
#X connect 41 0 82 0;
#X connect 42 0 15 0;
#X connect 43 0 42 0;
#X connect 44 0 70 1;
#X connect 45 0 44 0;
#X connect 45 0 49 0;
#X connect 45 0 38 0;
#X connect 46 0 43 0;
#X connect 46 0 70 0;
#X connect 46 0 71 0;
#X connect 46 0 82 0;
#X connect 47 0 70 0;
#X connect 47 0 75 0;
#X connect 48 0 16 0;
#X connect 49 0 71 1;
#X connect 50 0 71 0;
#X connect 50 0 76 0;
#X connect 51 0 17 0;
#X connect 52 0 60 1;
#X connect 53 0 54 0;
#X connect 53 0 57 0;
#X connect 54 0 60 0;
#X connect 54 0 63 0;
#X connect 54 0 72 0;
#X connect 54 0 73 0;
#X connect 55 0 63 1;
#X connect 56 0 52 0;
#X connect 56 0 55 0;
#X connect 56 0 58 0;
#X connect 56 0 59 0;
#X connect 56 0 73 0;
#X connect 57 0 60 0;
#X connect 57 0 63 0;
#X connect 57 0 72 0;
#X connect 57 0 73 0;
#X connect 58 0 72 1;
#X connect 59 0 73 1;
#X connect 60 0 62 0;
#X connect 61 0 60 0;
#X connect 61 0 77 0;
#X connect 62 0 10 0;
#X connect 63 0 65 0;
#X connect 64 0 63 0;
#X connect 64 0 78 0;
#X connect 65 0 11 0;
#X connect 66 0 72 0;
#X connect 66 0 79 0;
#X connect 67 0 12 0;
#X connect 68 0 73 0;
#X connect 68 0 80 0;
#X connect 69 0 13 0;
#X connect 70 0 48 0;
#X connect 71 0 51 0;
#X connect 72 0 67 0;
#X connect 73 0 69 0;
#X connect 74 0 42 0;
#X connect 75 0 48 0;
#X connect 76 0 51 0;
#X connect 77 0 62 0;
#X connect 78 0 65 0;
#X connect 79 0 67 0;
#X connect 80 0 69 0;
#X connect 81 0 82 1;
#X connect 82 0 85 0;
#X connect 83 0 85 0;
#X connect 84 0 82 0;
#X connect 84 0 83 0;
#X connect 85 0 18 0;
#X connect 86 0 92 0;
#X connect 87 0 91 0;
#X connect 88 0 89 0;
#X connect 90 0 88 0;
#X connect 91 0 6 7;
#X connect 92 0 6 0;
